<svg id="Layer_1" data-name="Layer 1" xmlns="http://www.w3.org/2000/svg" viewBox="0 0 168.75 112.5">
    <defs>
        <style>.cls-1{fill:#ededed;}.cls-2,.cls-4{fill:#d00100;}.cls-3{fill:#cc011d;}.cls-4{fill-rule:evenodd;}</style>
    </defs>
    <rect class="cls-1" x="52.68" width="64.2" height="112.5"/>
    <rect class="cls-2" width="52.68" height="112.5"/>
    <rect class="cls-3" x="116.88" width="51.87" height="112.5"/>
    <path class="cls-4"
          d="M83.33,88.66c0-.33,0-.77.08-1.77.18-3.8.59-11.27.4-13.71,0-.55-.63-.46-.86-.44-2,.12-9.19,1.13-13,1.62.82-2.09,1.66-4.09,1.39-5.12-.48-1.74-6.73-7-13.66-13,1.56-.54,3.24-1,3.46-2.06.35-1.48-.47-4.39-2.32-10.26,4.45,1.45,6.9,2.22,8.33,1.82.89-.35,1.1-1.84,1.37-4.61C71,44,74.61,49.92,75.86,49.53,77.78,48.79,75,37.77,74,31.89c2.1,1.44,3.47,2.53,4.56,2.52,1.51-.07,3-4,5.78-10.72,2.75,6.73,4.26,10.65,5.77,10.72,1.09,0,2.46-1.08,4.56-2.52-.95,5.88-3.74,16.9-1.82,17.64,1.25.39,4.91-5.58,7.37-8.37.27,2.77.48,4.26,1.37,4.61,1.43.4,3.88-.37,8.33-1.82-1.85,5.87-2.67,8.78-2.32,10.26.22,1.09,1.9,1.52,3.46,2.06-6.93,5.93-13.18,11.23-13.65,13-.28,1,.57,3,1.38,5.12-3.84-.49-11-1.5-13-1.62-.24,0-.83-.11-.87.44-.19,2.44.22,9.91.4,13.71,0,1,.08,1.44.08,1.77A3.72,3.72,0,0,1,83.33,88.66Z"/>
</svg>
