<?xml version="1.0" encoding="UTF-8" standalone="no"?>
<!DOCTYPE svg PUBLIC "-//W3C//DTD SVG 1.1//EN" "http://www.w3.org/Graphics/SVG/1.1/DTD/svg11.dtd">
<!-- Created with Vectornator (http://vectornator.io/) -->
<svg height="100%" stroke-miterlimit="10" style="fill-rule:nonzero;clip-rule:evenodd;stroke-linecap:round;stroke-linejoin:round;" version="1.1" viewBox="0 0 62 64" width="100%" xml:space="preserve" xmlns="http://www.w3.org/2000/svg" xmlns:vectornator="http://vectornator.io" xmlns:xlink="http://www.w3.org/1999/xlink">
<defs/>
<g id="Untitled" vectornator:layerName="Untitled">
<g opacity="1" vectornator:layerName="g">
<path d="M1.60614 32.2008C1.60614 15.8561 14.8561 2.60614 31.2008 2.60614C47.5454 2.60614 60.7954 15.8561 60.7954 32.2008C60.7954 48.5454 47.5454 61.7954 31.2008 61.7954C14.8561 61.7954 1.60614 48.5454 1.60614 32.2008Z" fill="none" opacity="1" stroke="#bd4257" stroke-linecap="butt" stroke-linejoin="miter" stroke-width="1.5" vectornator:layerName="path"/>
<g opacity="1" vectornator:layerName="g">
<path d="M23.8724 20.9266L27.2547 20.9266C27.8774 20.9266 28.3821 21.4314 28.3821 22.054L28.3821 42.3475C28.3821 42.9701 27.8774 43.4749 27.2547 43.4749L23.8724 43.4749C23.2498 43.4749 22.745 42.9701 22.745 42.3475L22.745 22.054C22.745 21.4314 23.2498 20.9266 23.8724 20.9266Z" fill="#bd4257" fill-rule="evenodd" opacity="1" stroke="none" vectornator:layerName="path"/>
<path d="M36.5558 20.9266L39.9381 20.9266C40.5608 20.9266 41.0655 21.4314 41.0655 22.054L41.0655 42.3475C41.0655 42.9701 40.5608 43.4749 39.9381 43.4749L36.5558 43.4749C35.9332 43.4749 35.4284 42.9701 35.4284 42.3475L35.4284 22.054C35.4284 21.4314 35.9332 20.9266 36.5558 20.9266Z" fill="#bd4257" fill-rule="evenodd" opacity="1" stroke="none" vectornator:layerName="path"/>
</g>
</g>
</g>
</svg>
