<svg id="Layer_1" data-name="Layer 1" xmlns="http://www.w3.org/2000/svg" viewBox="0 0 168.75 112.5">
    <defs>
        <style>.cls-1{fill:#d00100;}.cls-2{fill:#ededed;}</style>
    </defs>
    <rect class="cls-1" width="168.75" height="56.47"/>
    <rect class="cls-2" y="56.47" width="168.75" height="56.47"/>
    <path class="cls-2"
          d="M36.84,7A21.05,21.05,0,0,1,43.7,8.11c-10.64,1-18.94,9.6-18.94,20s8.3,19,18.94,20A21.16,21.16,0,1,1,36.84,7ZM48,10.9l1.13,3.51h3.67l-3,2.17L51,20.07,48,17.9l-3,2.17,1.14-3.5-3-2.17h3.67Zm11.27,8.63L60.37,23h3.68l-3,2.16,1.14,3.51-3-2.17-3,2.17,1.14-3.51-3-2.16h3.68Zm-22.54,0L37.84,23h3.67l-3,2.16,1.14,3.51-3-2.17-3,2.17,1.14-3.51-3-2.16h3.67Zm4.21,13.29,1.13,3.51h3.67l-3,2.16L43.89,42l-3-2.17L38,42l1.14-3.51-3-2.16h3.67Zm14.12,0,1.13,3.51h3.67l-3,2.16L58,42l-3-2.17-3,2.17,1.14-3.51-3-2.16h3.67Z"/>
</svg>
