<svg width="36" height="27" viewBox="0 0 36 27" fill="none" xmlns="http://www.w3.org/2000/svg">
<path d="M0 13.3073C0 12.2514 0.855927 11.3955 1.91177 11.3955H32.275C33.3309 11.3955 34.1868 12.2514 34.1868 13.3073C34.1868 14.3631 33.3309 15.219 32.275 15.219H1.91177C0.855931 15.219 0 14.3631 0 13.3073Z" fill="white"/>
<path d="M20.7712 1.35182C21.5178 0.605231 22.7283 0.605231 23.4749 1.35182L32.8581 10.735C33.6047 11.4816 33.6047 12.6921 32.8581 13.4387C32.1115 14.1853 30.901 14.1853 30.1544 13.4387L20.7712 4.05547C20.0246 3.30888 20.0246 2.09841 20.7712 1.35182Z" fill="white"/>
<path d="M21.8635 24.8342C21.1169 24.0877 21.117 22.8772 21.8635 22.1306L31.2468 12.7474C31.9933 12.0008 33.2038 12.0008 33.9504 12.7474C34.697 13.494 34.697 14.7044 33.9504 15.451L24.5672 24.8342C23.8206 25.5808 22.6101 25.5808 21.8635 24.8342Z" fill="white"/>
</svg>
