<svg xmlns="http://www.w3.org/2000/svg" xmlns:xlink="http://www.w3.org/1999/xlink" fill="none" viewBox="21.14 221.69 1946.45 1556.76"><filter id="a" color-interpolation-filters="sRGB" filterUnits="userSpaceOnUse" height="340.174" width="1700.11" x="141.354" y="850.039"><feFlood flood-opacity="0" result="BackgroundImageFix"/><feColorMatrix in="SourceAlpha" result="hardAlpha" type="matrix" values="0 0 0 0 0 0 0 0 0 0 0 0 0 0 0 0 0 0 127 0"/><feOffset dy="16.1612"/><feGaussianBlur stdDeviation="8.08058"/><feComposite in2="hardAlpha" operator="out"/><feColorMatrix type="matrix" values="0 0 0 0 0 0 0 0 0 0 0 0 0 0 0 0 0 0 0.25 0"/><feBlend in2="BackgroundImageFix" mode="normal" result="effect1_dropShadow_2899_242"/><feBlend in="SourceGraphic" in2="effect1_dropShadow_2899_242" mode="normal" result="shape"/></filter><filter id="b" color-interpolation-filters="sRGB" filterUnits="userSpaceOnUse" height="238.053" width="729.533" x="631.66" y="883.715"><feFlood flood-opacity="0" result="BackgroundImageFix"/><feColorMatrix in="SourceAlpha" result="hardAlpha" type="matrix" values="0 0 0 0 0 0 0 0 0 0 0 0 0 0 0 0 0 0 127 0"/><feOffset dx="4.04029" dy="4.04029"/><feGaussianBlur stdDeviation="8.08058"/><feComposite in2="hardAlpha" operator="out"/><feColorMatrix type="matrix" values="0 0 0 0 0 0 0 0 0 0 0 0 0 0 0 0 0 0 0.25 0"/><feBlend in2="BackgroundImageFix" mode="normal" result="effect1_dropShadow_2899_242"/><feBlend in="SourceGraphic" in2="effect1_dropShadow_2899_242" mode="normal" result="shape"/></filter><linearGradient id="c" gradientUnits="userSpaceOnUse" x1="13.0044" x2="1752.48" y1="1790.41" y2="707.524"><stop offset=".412445" stop-color="#fff" stop-opacity=".2"/><stop offset=".668747" stop-color="#fff" stop-opacity="0"/></linearGradient><linearGradient id="d"><stop offset=".665099" stop-color="#17313b"/><stop offset="1" stop-color="#3d7d95"/></linearGradient><radialGradient id="e" cx="0" cy="0" gradientTransform="matrix(-234.88548144 -84.30011052 83.45594399 -232.53337943 939.722 911.782)" gradientUnits="userSpaceOnUse" r="1" xlink:href="#d"/><radialGradient id="f" cx="0" cy="0" gradientTransform="matrix(-234.88548144 -84.30011052 83.45594399 -232.53337943 1136.93 911.782)" gradientUnits="userSpaceOnUse" r="1" xlink:href="#d"/><radialGradient id="g" cx="0" cy="0" gradientTransform="matrix(-234.88548144 -84.30011052 83.45594399 -232.53337943 1334.15 911.782)" gradientUnits="userSpaceOnUse" r="1" xlink:href="#d"/><radialGradient id="h" cx="0" cy="0" gradientTransform="matrix(-133.7883004 54.39652978 -71.21597416 -175.15573478 680.372 947.731)" gradientUnits="userSpaceOnUse" r="1"><stop offset="0" stop-color="#17313b"/><stop offset="1" stop-color="#3d7d95"/></radialGradient><clipPath id="i"><path d="m0 0h2000v2000h-2000z"/></clipPath><g clip-path="url(#i)"><path d="m32.3672 938.914h229.1608v307.866h-229.1608l101.7968-153.93z" fill="#cae0e7"/><path d="m1967.59 938.914h-229.16v307.866h229.16l-101.8-153.93z" fill="#cae0e7"/><path d="m1959.39 938.914h-229.16v307.866h229.16l-101.8-153.93z" fill="#cae0e7"/><path d="m1825.27 1158.01-97.07 39.06v-39.12z" fill="#72909a"/><path d="m21.1406 938.914h229.1604v307.866h-229.1604l101.7964-153.93z" fill="#cae0e7"/><path d="m157.516 1157.91 97.071 39.05v-39.12z" fill="#72909a"/><circle cx="992.316" cy="1000.07" fill="#17313b" r="778.379" transform="matrix(-1 0 0 -1 1984.632 2000.14)"/><circle cx="992.666" cy="1000.07" fill="#17313b" r="705.67" transform="matrix(-1 0 0 -1 1985.332 2000.14)"/><path d="m928.609 1539.05v10.06h-43.009v-8.67l20.375-26.44c2.224-2.97 3.935-5.54 5.132-7.69 1.232-2.19 2.088-4.16 2.567-5.91.479-1.74.718-3.45.718-5.13 0-2.33-.325-4.38-.975-6.16-.616-1.78-1.54-3.16-2.772-4.15-1.231-1.03-2.737-1.54-4.516-1.54-2.224 0-4.054.59-5.491 1.79-1.438 1.17-2.498 2.79-3.183 4.88-.684 2.05-1.026 4.41-1.026 7.08h-11.958c0-4.38.838-8.37 2.515-11.96 1.71-3.62 4.191-6.5 7.441-8.62 3.251-2.16 7.203-3.23 11.856-3.23 4.311 0 7.955.83 10.932 2.51 3.011 1.68 5.286 4.07 6.826 7.19 1.574 3.08 2.361 6.72 2.361 10.93 0 2.33-.325 4.65-.975 6.98-.616 2.29-1.489 4.57-2.618 6.82-1.129 2.26-2.498 4.54-4.106 6.83-1.574 2.29-3.302 4.62-5.183 6.98l-12.934 17.45zm54.476-33.57v12.22c0 5.85-.496 10.85-1.489 14.99-.992 4.1-2.412 7.44-4.259 10-1.848 2.57-4.038 4.45-6.57 5.65s-5.371 1.8-8.519 1.8c-2.464 0-4.773-.38-6.929-1.13-2.155-.76-4.106-1.94-5.851-3.54-1.71-1.61-3.182-3.68-4.413-6.21-1.232-2.57-2.173-5.63-2.823-9.19s-.975-7.68-.975-12.37v-12.22c0-5.88.513-10.84 1.539-14.88 1.027-4.07 2.464-7.37 4.311-9.9 1.848-2.57 4.038-4.44 6.57-5.6 2.566-1.16 5.406-1.74 8.519-1.74 2.464 0 4.773.37 6.929 1.13 2.156.71 4.089 1.86 5.8 3.43 1.71 1.58 3.182 3.63 4.413 6.16 1.232 2.5 2.156 5.53 2.772 9.09.65 3.52.975 7.63.975 12.31zm-11.907 14.02v-15.91c0-2.95-.137-5.55-.411-7.81-.273-2.25-.65-4.17-1.129-5.74-.479-1.58-1.095-2.84-1.847-3.8-.719-.99-1.557-1.71-2.515-2.16-.924-.48-1.951-.72-3.08-.72-1.402 0-2.668.36-3.798 1.08-1.094.72-2.035 1.88-2.822 3.49-.753 1.58-1.335 3.66-1.745 6.26-.411 2.57-.616 5.7-.616 9.4v15.91c0 2.97.137 5.59.41 7.85.274 2.26.668 4.21 1.181 5.85.513 1.61 1.129 2.92 1.848 3.95.718.99 1.539 1.73 2.463 2.21.958.48 2.002.72 3.131.72 1.437 0 2.703-.38 3.798-1.13 1.129-.76 2.07-1.94 2.822-3.54.753-1.65 1.318-3.78 1.694-6.42.411-2.63.616-5.8.616-9.49zm68.842 19.55v10.06h-43.004v-8.67l20.374-26.44c2.23-2.97 3.94-5.54 5.13-7.69 1.24-2.19 2.09-4.16 2.57-5.91.48-1.74.72-3.45.72-5.13 0-2.33-.33-4.38-.98-6.16-.61-1.78-1.54-3.16-2.77-4.15-1.23-1.03-2.74-1.54-4.51-1.54-2.23 0-4.06.59-5.5 1.79-1.43 1.17-2.49 2.79-3.18 4.88-.68 2.05-1.02 4.41-1.02 7.08h-11.963c0-4.38.838-8.37 2.515-11.96 1.708-3.62 4.188-6.5 7.438-8.62 3.25-2.16 7.21-3.23 11.86-3.23 4.31 0 7.95.83 10.93 2.51 3.01 1.68 5.29 4.07 6.83 7.19 1.57 3.08 2.36 6.72 2.36 10.93 0 2.33-.33 4.65-.98 6.98-.61 2.29-1.49 4.57-2.61 6.82-1.13 2.26-2.5 4.54-4.11 6.83-1.57 2.29-3.3 4.62-5.18 6.98l-12.94 17.45zm25.07-33h6.42c2.19 0 3.98-.48 5.39-1.44 1.43-.99 2.49-2.34 3.18-4.05.68-1.75 1.03-3.73 1.03-5.96 0-2.32-.33-4.32-.98-6-.62-1.68-1.56-2.96-2.82-3.85-1.23-.89-2.81-1.33-4.72-1.33-1.65 0-3.12.42-4.42 1.28-1.3.82-2.32 2.02-3.08 3.59-.72 1.54-1.07 3.37-1.07 5.49h-11.96c0-3.97.87-7.49 2.61-10.57 1.75-3.08 4.14-5.49 7.19-7.24 3.08-1.78 6.59-2.66 10.52-2.66 4.07 0 7.65.8 10.73 2.41 3.11 1.61 5.54 3.98 7.29 7.13 1.77 3.15 2.66 7.05 2.66 11.7 0 2.16-.41 4.33-1.23 6.52s-2.05 4.19-3.69 6.01c-1.61 1.78-3.65 3.21-6.11 4.31-2.43 1.09-5.3 1.64-8.62 1.64h-8.32zm0 9.85v-6.87h8.37c3.8 0 7 .51 9.6 1.54 2.63.99 4.73 2.39 6.31 4.2 1.61 1.78 2.77 3.84 3.49 6.16.72 2.3 1.08 4.71 1.08 7.24 0 3.49-.55 6.6-1.65 9.34-1.06 2.7-2.58 5.01-4.56 6.93-1.99 1.88-4.28 3.3-6.88 4.26s-5.44 1.44-8.52 1.44c-2.77 0-5.41-.45-7.9-1.34-2.5-.89-4.73-2.21-6.68-3.95-1.91-1.78-3.43-3.99-4.56-6.62-1.1-2.67-1.65-5.77-1.65-9.29h11.91c0 2.19.38 4.12 1.13 5.8s1.8 2.99 3.13 3.95c1.37.92 2.96 1.39 4.77 1.39 1.95 0 3.63-.47 5.03-1.39 1.44-.92 2.54-2.27 3.29-4.05.78-1.78 1.18-3.94 1.18-6.47 0-2.84-.43-5.17-1.28-6.98-.83-1.81-2.01-3.15-3.55-4-1.54-.86-3.4-1.29-5.59-1.29z" fill="#fff"/><circle cx="992.32" cy="1000.07" fill="#224957" r="705.867"/><circle cx="992.32" cy="1000.07" fill="url(#c)" fill-opacity=".4" r="705.867"/><circle cx="992.32" cy="1000.07" r="705.867" stroke="#d5b17a" stroke-width="22"/><path d="m842.521 1080.46h-29.612v-115.942l-28.883 11.157v-24.607l55.367-22.626h3.128zm135.545-62.76c0 20.99-3.824 37.05-11.47 48.17-7.577 11.12-18.421 16.68-32.532 16.68-13.972 0-24.781-5.39-32.427-16.16-7.577-10.85-11.504-26.35-11.782-46.51v-28.669c0-20.923 3.788-36.911 11.365-47.963 7.577-11.122 18.455-16.683 32.636-16.683 14.18 0 25.059 5.491 32.636 16.474s11.435 26.658 11.574 47.025zm-29.613-30.764c0-11.956-1.181-20.923-3.545-26.901-2.363-5.978-6.047-8.967-11.052-8.967-9.384 0-14.25 10.948-14.598 32.844v37.848c0 12.24 1.182 21.34 3.545 27.32 2.433 5.98 6.187 8.97 11.261 8.97 4.797 0 8.342-2.78 10.636-8.34 2.363-5.63 3.614-14.22 3.753-25.76zm141.907 30.764c0 20.99-3.82 37.05-11.47 48.17-7.58 11.12-18.42 16.68-32.53 16.68-13.97 0-24.78-5.39-32.43-16.16-7.58-10.85-11.5-26.35-11.78-46.51v-28.669c0-20.923 3.79-36.911 11.36-47.963 7.58-11.122 18.46-16.683 32.64-16.683s25.06 5.491 32.63 16.474c7.58 10.983 11.44 26.658 11.58 47.025zm-29.61-30.764c0-11.956-1.19-20.923-3.55-26.901s-6.05-8.967-11.05-8.967c-9.39 0-14.25 10.948-14.6 32.844v37.848c0 12.24 1.18 21.34 3.55 27.32 2.43 5.98 6.18 8.97 11.26 8.97 4.79 0 8.34-2.78 10.63-8.34 2.37-5.63 3.62-14.22 3.76-25.76zm141.9 30.764c0 20.99-3.82 37.05-11.47 48.17-7.58 11.12-18.42 16.68-32.53 16.68-13.97 0-24.78-5.39-32.43-16.16-7.57-10.85-11.5-26.35-11.78-46.51v-28.669c0-20.923 3.79-36.911 11.37-47.963 7.57-11.122 18.45-16.683 32.63-16.683s25.06 5.491 32.64 16.474c7.57 10.983 11.43 26.658 11.57 47.025zm-29.61-30.764c0-11.956-1.18-20.923-3.55-26.901-2.36-5.978-6.04-8.967-11.05-8.967-9.38 0-14.25 10.948-14.6 32.844v37.848c0 12.24 1.19 21.34 3.55 27.32 2.43 5.98 6.19 8.97 11.26 8.97 4.8 0 8.34-2.78 10.64-8.34 2.36-5.63 3.61-14.22 3.75-25.76z" fill="#17313b"/><g clip-rule="evenodd" fill-rule="evenodd"><path d="m841.148 696.496h29.171v-174.132h-29.171z" fill="#fff"/><path d="m972.098 641.07c0 26.596-22.971 28.706-29.801 28.706-17.071 0-20.181-15.56-20.181-24.934v-66.507h-28.561v66.361c0 16.47 5.313 30.065 14.634 39.136 8.226 8.005 20.547 12.395 33.897 12.395 9.465 0 22.871-2.874 30.012-9.217v9.486h28.562v-118.161h-28.562z" fill="#fff"/><path d="m1056.7 536.578h-28.56v41.721h-21.42v27.805h21.42v90.392h28.56v-90.392h21.42v-27.805h-21.42z" fill="#fff"/><path d="m1168.94 661.559c-6.23 5.439-14.48 8.473-23.51 8.473-19.93 0-34.56-14.216-34.56-33.735 0-19.509 14.17-33.117 34.56-33.117 8.87 0 17.28 2.876 23.66 8.315l4.35 3.63 19.31-18.755-4.83-4.237c-11.36-9.979-26.46-15.575-42.49-15.575-35.8 0-61.81 25.105-61.81 59.593 0 34.33 26.63 60.345 61.81 60.345 16.34 0 31.6-5.596 42.8-15.732l4.68-4.226-19.61-18.755z" fill="#fff"/><path d="m1291.91 588.414c-8.24-8.021-17.9-12.42-31.26-12.42-9.49 0-20.24 2.88-27.39 9.236v-62.867h-28.61v174.133h28.61v-65.229c0-26.652 19.44-28.779 26.28-28.779 17.1 0 16.64 15.605 16.64 24.987v69.021h28.61v-68.863c0-16.504-3.55-30.14-12.88-39.219z" fill="#fff"/><path d="m1144.7 615.639c11.43 0 20.68 9.044 20.68 20.212 0 11.167-9.25 20.211-20.68 20.211-11.42 0-20.68-9.044-20.68-20.211 0-11.168 9.26-20.212 20.68-20.212z" fill="#ff3d2e"/><path d="m802.765 652.968c-10.863 10.918-25.613 16.834-41.138 16.834-31.836 0-54.968-24.418-54.968-57.929 0-33.669 23.132-58.087 54.968-58.087 15.359 0 29.954 5.916 40.983 16.677l4.341 4.248 19.102-18.649-4.186-4.248c-15.846-15.921-37.273-24.564-60.24-24.564-46.896 0-82.143 36.396-82.143 84.769 0 48.228 35.402 84.477 82.143 84.477 23.133 0 44.56-8.8 60.395-24.722l4.186-4.248-18.936-18.953z" fill="#fff"/></g><path d="m894.74 1457.37h-68.326v-11.17l34.835-46.16c5.26-7.11 8.897-12.93 10.912-17.46 2.07-4.59 3.105-9.43 3.105-14.52 0-6.49-1.511-11.75-4.532-15.78-3.022-4.03-6.995-6.05-11.92-6.05-6.211 0-11.023 2.16-14.437 6.47-3.357 4.25-5.036 10.41-5.036 18.46h-14.857c0-11.24 3.078-20.34 9.233-27.28s14.521-10.4 25.097-10.4c9.737 0 17.404 2.99 22.999 8.98 5.596 5.93 8.394 13.85 8.394 23.75 0 12.09-6.295 26.39-18.886 42.89l-27.196 35.59h50.615zm87.08-52.13c0 18.02-2.63 31.51-7.89 40.46-5.26 8.9-13.514 13.35-24.762 13.35-10.911 0-19.053-4.28-24.425-12.85-5.372-8.56-8.17-21.43-8.394-38.61v-20.98c0-17.85 2.63-31.17 7.89-39.96 5.316-8.78 13.57-13.17 24.762-13.17 11.023 0 19.165 4.16 24.425 12.5 5.317 8.34 8.114 20.96 8.394 37.86zm-14.857-21.23c0-12.93-1.427-22.44-4.281-28.54-2.853-6.16-7.414-9.24-13.681-9.24-6.1 0-10.577 3.03-13.43 9.07-2.854 5.99-4.337 15.05-4.449 27.19v25.19c0 12.87 1.483 22.55 4.449 29.04 2.965 6.43 7.498 9.65 13.597 9.65 6.044 0 10.493-3.05 13.347-9.15 2.853-6.1 4.336-15.41 4.448-27.95zm107.977 73.36h-68.32v-11.17l34.83-46.16c5.26-7.11 8.9-12.93 10.91-17.46 2.08-4.59 3.11-9.43 3.11-14.52 0-6.49-1.51-11.75-4.53-15.78s-7-6.05-11.92-6.05c-6.21 0-11.03 2.16-14.44 6.47-3.36 4.25-5.03 10.41-5.03 18.46h-14.86c0-11.24 3.08-20.34 9.23-27.28 6.16-6.94 14.52-10.4 25.1-10.4 9.74 0 17.4 2.99 23 8.98 5.59 5.93 8.39 13.85 8.39 23.75 0 12.09-6.29 26.39-18.88 42.89l-27.2 35.59h50.61zm40.75-68.66h9.49c6.1 0 10.8-1.88 14.1-5.63s4.95-8.87 4.95-15.36c0-14.32-5.54-21.49-16.62-21.49-5.32 0-9.48 1.93-12.51 5.8-3.02 3.86-4.53 8.92-4.53 15.19h-14.77c0-9.79 2.96-17.85 8.9-24.18 5.98-6.38 13.62-9.56 22.91-9.56 9.62 0 17.26 3.02 22.92 9.06 5.65 5.99 8.47 14.49 8.47 25.52 0 5.65-1.48 10.94-4.45 15.86-2.91 4.87-6.71 8.45-11.41 10.75 11.53 4.25 17.29 13.79 17.29 28.62 0 10.91-3.05 19.61-9.15 26.1-6.04 6.44-13.96 9.66-23.75 9.66-9.68 0-17.52-3.05-23.51-9.15-5.93-6.16-8.89-14.41-8.89-24.76h14.85c0 6.49 1.57 11.66 4.7 15.52 3.14 3.81 7.42 5.71 12.85 5.71 5.54 0 9.93-1.87 13.17-5.62 3.31-3.75 4.96-9.46 4.96-17.13 0-14.82-7.03-22.24-21.07-22.24h-8.9z" fill="#fff"/><g filter="url(#a)"><path d="m157.516 850.039h1667.79v307.851h-1667.79z" fill="#cae0e7"/></g><g filter="url(#b)"><path d="m859.525 1101.57c-16.956 0-32.028-4.05-45.216-12.16-12.999-8.1-23.267-19.78-30.803-35.04s-11.304-33.82-11.304-55.67c0-21.854 3.768-40.412 11.304-55.672s17.804-26.941 30.803-35.042c13.188-8.101 28.26-12.152 45.216-12.152 16.768 0 31.651 4.051 44.651 12.152 13.188 8.101 23.549 19.782 31.085 35.042s11.304 33.818 11.304 55.672c0 21.85-3.768 40.41-11.304 55.67s-17.897 26.94-31.085 35.04c-13 8.11-27.883 12.16-44.651 12.16zm0-45.79c6.029 0 11.304-1.88 15.826-5.65 4.71-3.77 8.383-9.79 11.021-18.08 2.637-8.48 3.956-19.6 3.956-33.35 0-13.942-1.319-25.057-3.956-33.347-2.638-8.289-6.311-14.318-11.021-18.086-4.522-3.768-9.797-5.652-15.826-5.652s-11.398 1.884-16.108 5.652c-4.522 3.768-8.195 9.797-11.021 18.086-2.638 8.29-3.957 19.405-3.957 33.347 0 13.75 1.319 24.87 3.957 33.35 2.826 8.29 6.499 14.31 11.021 18.08 4.71 3.77 10.079 5.65 16.108 5.65z" fill="url(#e)"/><path d="m1056.74 1101.57c-16.96 0-32.03-4.05-45.22-12.16-12.999-8.1-23.267-19.78-30.803-35.04s-11.304-33.82-11.304-55.67c0-21.854 3.768-40.412 11.304-55.672s17.804-26.941 30.803-35.042c13.19-8.101 28.26-12.152 45.22-12.152 16.76 0 31.65 4.051 44.65 12.152 13.18 8.101 23.55 19.782 31.08 35.042 7.54 15.26 11.31 33.818 11.31 55.672 0 21.85-3.77 40.41-11.31 55.67-7.53 15.26-17.9 26.94-31.08 35.04-13 8.11-27.89 12.16-44.65 12.16zm0-45.79c6.02 0 11.3-1.88 15.82-5.65 4.71-3.77 8.39-9.79 11.02-18.08 2.64-8.48 3.96-19.6 3.96-33.35 0-13.942-1.32-25.057-3.96-33.347-2.63-8.289-6.31-14.318-11.02-18.086-4.52-3.768-9.8-5.652-15.82-5.652-6.03 0-11.4 1.884-16.11 5.652-4.52 3.768-8.2 9.797-11.02 18.086-2.64 8.29-3.96 19.405-3.96 33.347 0 13.75 1.32 24.87 3.96 33.35 2.82 8.29 6.5 14.31 11.02 18.08 4.71 3.77 10.08 5.65 16.11 5.65z" fill="url(#f)"/><path d="m1253.95 1101.57c-16.95 0-32.02-4.05-45.21-12.16-13-8.1-23.27-19.78-30.8-35.04-7.54-15.26-11.31-33.82-11.31-55.67 0-21.854 3.77-40.412 11.31-55.672 7.53-15.26 17.8-26.941 30.8-35.042 13.19-8.101 28.26-12.152 45.21-12.152 16.77 0 31.66 4.051 44.66 12.152 13.18 8.101 23.55 19.782 31.08 35.042 7.54 15.26 11.31 33.818 11.31 55.672 0 21.85-3.77 40.41-11.31 55.67-7.53 15.26-17.9 26.94-31.08 35.04-13 8.11-27.89 12.16-44.66 12.16zm0-45.79c6.03 0 11.31-1.88 15.83-5.65 4.71-3.77 8.38-9.79 11.02-18.08 2.64-8.48 3.96-19.6 3.96-33.35 0-13.942-1.32-25.057-3.96-33.347-2.64-8.289-6.31-14.318-11.02-18.086-4.52-3.768-9.8-5.652-15.83-5.652-6.02 0-11.39 1.884-16.1 5.652-4.52 3.768-8.2 9.797-11.02 18.086-2.64 8.29-3.96 19.405-3.96 33.347 0 13.75 1.32 24.87 3.96 33.35 2.82 8.29 6.5 14.31 11.02 18.08 4.71 3.77 10.08 5.65 16.1 5.65z" fill="url(#g)"/><path d="m680.519 1100.22v-177.752l24.021 23.173h-60.758v-43.237h92.692v197.816z" fill="url(#h)"/></g></g></svg>