<svg width="16" height="27" viewBox="0 0 16 27" fill="none" xmlns="http://www.w3.org/2000/svg">
<path d="M1.4549 1.4682C2.26293 0.660165 3.57301 0.660165 4.38104 1.4682L14.5364 11.6236C15.3445 12.4316 15.3445 13.7417 14.5364 14.5497C13.7284 15.3578 12.4183 15.3578 11.6103 14.5497L1.4549 4.39433C0.646866 3.5863 0.646869 2.27623 1.4549 1.4682Z" fill="white"/>
<path d="M1.45526 24.8364C0.647226 24.0284 0.647226 22.7183 1.45526 21.9103L11.6107 11.7549C12.4187 10.9469 13.7288 10.9469 14.5368 11.7549C15.3448 12.5629 15.3448 13.873 14.5368 14.681L4.38139 24.8364C3.57336 25.6445 2.26329 25.6445 1.45526 24.8364Z" fill="white"/>
</svg>
