<svg id="Layer_1" data-name="Layer 1" xmlns="http://www.w3.org/2000/svg" viewBox="0 0 168.75 112.5">
    <defs>
        <style>.cls-1{fill:#111fa3;}.cls-2{fill:#e2e2e2;}.cls-2,.cls-3{fill-rule:evenodd;}.cls-3{fill:#f71100;}</style>
    </defs>
    <rect class="cls-1" y="0.11" width="168.75" height="112.5"/>
    <polygon class="cls-2"
             points="39.27 71.72 41.57 79.26 48.63 76.45 44.45 83.05 50.94 87.08 43.42 87.77 44.46 95.61 39.27 89.88 34.07 95.61 35.1 87.77 27.59 87.08 34.08 83.05 29.91 76.45 36.96 79.26 39.27 71.72"/>
    <polygon class="cls-2"
             points="120.42 77.54 121.65 81.57 125.42 80.08 123.19 83.6 126.66 85.76 122.64 86.13 123.19 90.33 120.42 87.26 117.64 90.33 118.19 86.13 114.17 85.76 117.64 83.6 115.41 80.08 119.18 81.57 120.42 77.54"/>
    <polygon class="cls-2"
             points="98 40.28 99.23 44.31 103.01 42.81 100.78 46.34 104.24 48.5 100.22 48.87 100.78 53.06 98 49.99 95.22 53.06 95.77 48.87 91.76 48.5 95.22 46.34 92.99 42.81 96.76 44.31 98 40.28"/>
    <polygon class="cls-2"
             points="120.42 14.78 121.65 18.82 125.42 17.32 123.19 20.84 126.66 23 122.64 23.37 123.19 27.57 120.42 24.5 117.64 27.57 118.19 23.37 114.17 23 117.64 20.84 115.41 17.32 119.18 18.82 120.42 14.78"/>
    <polygon class="cls-2"
             points="140.34 34.01 141.58 38.04 145.35 36.54 143.12 40.06 146.59 42.22 142.57 42.59 143.12 46.79 140.34 43.72 137.56 46.79 138.12 42.59 134.1 42.22 137.57 40.06 135.34 36.54 139.11 38.04 140.34 34.01"/>
    <polygon class="cls-2"
             points="129.38 52.89 130.36 55.4 132.94 55.6 130.97 57.35 131.58 59.98 129.38 58.55 127.19 59.98 127.8 57.35 125.83 55.6 128.41 55.4 129.38 52.89"/>
    <polygon class="cls-2"
             points="0 0.11 7.29 0.11 33.64 18.66 33.64 0.11 45.4 0.11 45.4 18.66 71.75 0.11 79.04 0.11 79.04 5.88 57.6 20.97 79.04 20.97 79.04 35.53 57.6 35.53 79.04 50.62 79.04 56.38 71.75 56.38 45.4 37.83 45.4 56.38 33.64 56.38 33.64 37.83 7.29 56.38 0 56.38 0 50.62 21.44 35.53 0 35.53 0 20.97 21.44 20.97 0 5.88 0 0.11"/>
    <polygon class="cls-3"
             points="79.04 23.53 79.04 32.96 43.39 32.96 43.39 56.38 35.65 56.38 35.65 32.96 0 32.96 0 23.53 35.65 23.53 35.65 0.11 43.39 0.11 43.39 23.53 79.04 23.53"/>
    <polygon class="cls-3" points="24.3 20.97 0 3.86 0 0.39 29.24 20.97 24.3 20.97"/>
    <polygon class="cls-3" points="33.64 35.96 4.63 56.38 0 56.38 0 56.16 29.31 35.53 33.64 35.53 33.64 35.96"/>
    <polygon class="cls-3" points="79.04 0.52 49.99 20.97 45.4 20.97 45.4 20.72 74.68 0.11 79.04 0.11 79.04 0.52"/>
    <polygon class="cls-3" points="79.04 55.96 50.01 35.53 54.95 35.53 79.04 52.48 79.04 55.96"/>
</svg>
