<svg id="Layer_1" data-name="Layer 1" xmlns="http://www.w3.org/2000/svg" viewBox="0 0 168.75 112.5">
    <defs>
        <style>
            .cls-1{fill:#6aa727;}.cls-2{fill:#f3de3a;}.cls-2,.cls-3,.cls-4,.cls-5{fill-rule:evenodd;}.cls-3{fill:#ebebeb;}.cls-4{fill:#1d3191;}.cls-5{fill:#5f9724;}
        </style>
    </defs>
    <rect class="cls-1" width="168.75" height="112.5"/>
    <polygon class="cls-2" points="14.97 56.1 84.24 13.2 153.87 56.1 84.36 98.87 14.97 56.1"/>
    <path class="cls-3"
          d="M84.21,85.16c16,0,29.11-12.73,29.11-28.35S100.24,28.46,84.21,28.46,55.09,41.2,55.09,56.81,68.17,85.16,84.21,85.16Z"/>
    <path class="cls-4"
          d="M84.21,28.46c15.75,0,28.58,12.18,29.1,27.39A80.93,80.93,0,0,0,72,44.55a81.85,81.85,0,0,0-14.61,1.32A29.15,29.15,0,0,1,84.21,28.46Zm28.44,34.43a74.5,74.5,0,0,0-40.7-12,75.31,75.31,0,0,0-16.56,1.84,27.77,27.77,0,0,0-.3,4.1c0,15.66,13,28.35,29.12,28.35A29,29,0,0,0,112.65,62.89Z"/>
    <path class="cls-5"
          d="M62.84,48.45a1.62,1.62,0,0,1-.34,1.17,1.37,1.37,0,0,1-1,.53,1.29,1.29,0,0,1-1-.35,1.43,1.43,0,0,1-.47-1,1.69,1.69,0,0,1,.33-1.17,1.35,1.35,0,0,1,1-.52,1.29,1.29,0,0,1,1,.34A1.49,1.49,0,0,1,62.84,48.45Zm-.61.11a1.16,1.16,0,0,0-.29-.74.72.72,0,0,0-.61-.25.65.65,0,0,0-.53.33,1.12,1.12,0,0,0-.17.76,1.11,1.11,0,0,0,.29.74.69.69,0,0,0,.6.25.64.64,0,0,0,.53-.33A1.18,1.18,0,0,0,62.23,48.56Zm3.57,1.06-.66.07a4.68,4.68,0,0,0-.49-.94.52.52,0,0,0-.47-.13l-.24,0c0,.39.08.77.14,1.16l-.62.07c0-.45-.07-1-.13-1.53s-.11-1-.17-1.38l.38,0,.28,0,.39-.05c.68-.07,1,.13,1.09.59a.79.79,0,0,1-.5.84v0a.66.66,0,0,1,.43.31A7.59,7.59,0,0,1,65.8,49.62Zm-1-2c0-.3-.23-.42-.61-.38a1.35,1.35,0,0,0-.37.07c0,.22.08.53.12.9l.21,0C64.57,48.17,64.79,48,64.75,47.65Zm3.75.24A1.68,1.68,0,0,1,68.17,49a1.41,1.41,0,0,1-1.1.55c-.22,0-.52,0-.91,0,0-.45,0-1-.08-1.53s-.08-1-.12-1.39l.39,0,.28,0,.25,0a1.49,1.49,0,0,1,1.19.32A1.42,1.42,0,0,1,68.5,47.89Zm-.6.14a1.07,1.07,0,0,0-.3-.7.91.91,0,0,0-.78-.24.92.92,0,0,0-.26,0c0,.29.06.61.08.93s.06.71.1,1.06a1,1,0,0,0,.29,0,.84.84,0,0,0,.69-.35A1.17,1.17,0,0,0,67.9,48Zm3,.84v.5l-1.89.09c0-.46,0-1,0-1.53s-.05-1-.09-1.4l1.81-.08v.49l-1.22,0a7.15,7.15,0,0,1,.06.74l1-.07,0,.47-1,0c0,.3,0,.59.06.85C70.05,49,70.49,48.92,70.94,48.87Zm3.83.49h-.65q0-.39-.06-1.29c0-.61,0-1,0-1.14h0c0,.09-.06.26-.12.5s-.18.61-.35,1.08a3.8,3.8,0,0,0-.26.85h-.49a5.55,5.55,0,0,0-.26-.85c-.17-.48-.29-.81-.34-1s-.09-.38-.13-.57h0c0,.19,0,.59,0,1.21s0,1,0,1.22h-.59s.05-.5.15-1.35.16-1.39.16-1.58h.86a4.78,4.78,0,0,0,.28,1.11,6.18,6.18,0,0,1,.28,1.09h0a4.67,4.67,0,0,1,.3-1.1,4.31,4.31,0,0,0,.31-1.11h.85c0,.32,0,.87.12,1.67S74.77,49.31,74.77,49.36Zm6.68,0,0,.49-1.89-.15c0-.45.1-1,.15-1.52s.07-1,.08-1.4l1.8.15-.06.49c-.44-.06-.85-.11-1.21-.14,0,.21,0,.46,0,.74.31,0,.64,0,1,.06l0,.46-1-.1c0,.31,0,.59,0,.86Q80.76,49.35,81.45,49.36Zm6.61-.82a.89.89,0,0,1-.53.71,1.75,1.75,0,0,1-1,.08l-.15,0c0,.28-.11.65-.17,1.1l-.62-.11q.15-.63.3-1.5c.09-.53.17-1,.22-1.38l.38.07.31.05a3,3,0,0,1,.4.07,1.2,1.2,0,0,1,.67.31A.69.69,0,0,1,88.06,48.54Zm-.59,0c0-.31-.13-.51-.54-.59l-.34,0c0,.28-.08.6-.14.95l.13,0C87.11,49,87.41,48.9,87.47,48.56Zm2.85,2.71a6.94,6.94,0,0,0-.21-1.14.72.72,0,0,0-.31-.44v0a.79.79,0,0,0,.74-.63c.11-.46-.17-.77-.84-.92L89.33,48,89.05,48l-.37-.09c-.07.38-.16.84-.28,1.37s-.25,1-.37,1.49l.6.14q.12-.59.24-1.14l.25,0a.54.54,0,0,1,.39.28,4.5,4.5,0,0,1,.17,1ZM90,49.06c-.07.33-.34.43-.8.33l-.2,0c.08-.37.14-.67.18-.89a1.8,1.8,0,0,1,.37,0C89.88,48.58,90,48.77,90,49.06Zm3.69,1.44a1.61,1.61,0,0,1-.69,1,1.41,1.41,0,0,1-2-.46,1.5,1.5,0,0,1-.12-1.13,1.66,1.66,0,0,1,.68-1,1.36,1.36,0,0,1,1.11-.18,1.32,1.32,0,0,1,.86.65A1.47,1.47,0,0,1,93.65,50.5ZM93,50.41a1.16,1.16,0,0,0,0-.79.73.73,0,0,0-.5-.43.64.64,0,0,0-.61.15,1.16,1.16,0,0,0-.4.66,1.13,1.13,0,0,0,0,.8.74.74,0,0,0,.5.43.7.7,0,0,0,.61-.15A1.18,1.18,0,0,0,93,50.41Zm3,2.39a3.77,3.77,0,0,1-.89-.14,1.5,1.5,0,0,1-1-.75,1.47,1.47,0,0,1-.08-1.11,1.58,1.58,0,0,1,.74-.92,1.56,1.56,0,0,1,1.28-.09,2.41,2.41,0,0,1,.58.25l-.22.49a3,3,0,0,0-.57-.28.82.82,0,0,0-.76.07,1,1,0,0,0-.43.61,1.08,1.08,0,0,0,0,.79.87.87,0,0,0,.58.52,1.84,1.84,0,0,0,.29.06,4.21,4.21,0,0,1,.12-.48,4.88,4.88,0,0,0,.11-.53l.6.19c-.07.21-.15.43-.22.66S96.13,52.52,96.06,52.8Zm2.7,1.1a6.89,6.89,0,0,0-.08-1.16.69.69,0,0,0-.25-.47v0a.79.79,0,0,0,.81-.54c.16-.44-.08-.78-.73-1l-.37-.13-.27-.08-.36-.14c-.11.37-.25.82-.43,1.33s-.37,1-.54,1.43l.58.21c.12-.37.24-.74.37-1.1l.23.08a.51.51,0,0,1,.36.32,4.41,4.41,0,0,1,0,1.06Zm-.1-2.23c-.11.31-.39.38-.83.22l-.2-.07c.13-.35.22-.64.28-.87a2,2,0,0,1,.36.1C98.63,51.18,98.76,51.38,98.66,51.67Zm2.41,2.62-.19.46-1.77-.7c.18-.41.38-.89.58-1.42s.36-.94.48-1.31l1.68.67-.2.45c-.4-.19-.78-.35-1.11-.48-.06.2-.15.43-.25.69.29.12.6.23.94.35l-.17.43-.92-.38c-.11.28-.21.55-.29.8C100.23,54,100.64,54.15,101.07,54.29Zm2.37.69a.82.82,0,0,0,0-.67,1.63,1.63,0,0,0-.41-.52,2.31,2.31,0,0,1-.35-.39.29.29,0,0,1,0-.27c.07-.18.27-.2.59-.07a1.8,1.8,0,0,1,.57.34l.26-.44a3.37,3.37,0,0,0-.66-.33,1.3,1.3,0,0,0-.84-.1.71.71,0,0,0-.48.46.78.78,0,0,0,0,.6,1.63,1.63,0,0,0,.37.5,3.15,3.15,0,0,1,.38.44.37.37,0,0,1,0,.32.24.24,0,0,1-.23.17,1.46,1.46,0,0,1-.5-.13,2.13,2.13,0,0,1-.59-.37l-.28.43a2.76,2.76,0,0,0,.7.39C102.74,55.64,103.23,55.52,103.44,55Zm2.26,1c-.23.54-.73.64-1.5.31a2.67,2.67,0,0,1-.68-.41l.29-.41a2,2,0,0,0,.58.38,1.47,1.47,0,0,0,.5.14.23.23,0,0,0,.23-.15.35.35,0,0,0,0-.33,3.36,3.36,0,0,0-.37-.45,1.66,1.66,0,0,1-.35-.51.78.78,0,0,1,0-.6.71.71,0,0,1,.49-.45,1.34,1.34,0,0,1,.84.13,2.87,2.87,0,0,1,.64.35l-.27.43a1.75,1.75,0,0,0-.55-.36c-.32-.14-.52-.12-.59,0a.31.31,0,0,0,0,.28,2.62,2.62,0,0,0,.34.39,1.63,1.63,0,0,1,.39.54A.86.86,0,0,1,105.7,56Zm3.16.88a1.47,1.47,0,0,0,.14-1.13,1.39,1.39,0,0,0-1.81-.91,1.6,1.6,0,0,0-.9.82,1.51,1.51,0,0,0-.13,1.13,1.31,1.31,0,0,0,.68.83,1.35,1.35,0,0,0,1.13.08A1.61,1.61,0,0,0,108.86,56.84Zm-.57-.23a1.2,1.2,0,0,1-.54.55.67.67,0,0,1-.63,0,.76.76,0,0,1-.39-.54,1.33,1.33,0,0,1,.68-1.34.7.7,0,0,1,.63,0,.74.74,0,0,1,.39.53A1.21,1.21,0,0,1,108.29,56.61Z"/>
    <path class="cls-3"
          d="M102.1,70.74l.32-1.4-1.15-.77,1.47-.13.45-1.22.52,1.24,1.35.07-1.06.85.39,1.28-1.17-.73ZM56.48,57.61l.33-1.4-1.15-.77,1.47-.13.45-1.22.51,1.24,1.35.07-1.06.84.4,1.29-1.17-.73Zm2,9.1.18-.8L58,65.47l.84-.08.25-.69.3.71.77,0-.6.48.22.74-.67-.42ZM61,65.12l.32-1.4L60.16,63l1.47-.13.44-1.22.52,1.24,1.35.07-1.06.84.4,1.29-1.18-.73Zm3.85-2.9.14-.61-.5-.35.65-.06.2-.53.22.55.6,0-.47.38.18.57-.52-.32ZM68.17,67l.18-.8-.65-.44.84-.07.25-.7.3.71.77,0-.61.48.23.74-.67-.42Zm-.93,3.11.18-.8-.66-.44.85-.08.25-.7.3.71.77,0-.61.49.23.73-.67-.41Zm4,3.2.32-1.39-1.15-.78L71.91,71l.45-1.21L72.88,71l1.35.06L73.17,72l.39,1.28-1.17-.72Zm3.1-11.59.32-1.39-1.14-.78L75,59.42l.44-1.22L76,59.44l1.35.07-1.06.85.4,1.28-1.18-.73Zm6.7,5.72.32-1.4-1.15-.78,1.47-.13.45-1.21.52,1.24,1.35.06L83,66.07l.39,1.28-1.17-.72Zm3-3.53.33-1.4-1.15-.77,1.47-.13.45-1.22.51,1.24L87,61.7,86,62.55l.4,1.28L85.2,63.1Zm.68,5.22.14-.62-.51-.34.65-.06.2-.54.23.55.6,0-.47.37.18.57-.52-.32Zm.43,2.66.19-.8-.66-.44.84-.08.26-.69.29.71.78,0-.61.49.23.73-.68-.41Zm-.4,6.35.19-.8-.66-.45.84-.07.26-.7.3.71.77,0-.61.49.23.73-.67-.42ZM88.09,67.6l.32-1.4-1.15-.77,1.47-.13.45-1.22.52,1.24,1.34.07L90,66.24l.39,1.28-1.17-.73Zm5-10.13.19-.8-.66-.45.85-.07.25-.7.3.71.77,0-.61.49.23.73L93.74,57Zm-.89,17,.14-.61-.5-.35.65-.06.19-.54.23.55.6,0-.47.38.18.57-.52-.33ZM93.7,77l.15-.62L93.34,76,94,76l.2-.54.23.55L95,76l-.46.37.17.57-.52-.32Zm1.85-1.62.14-.62-.51-.34.65-.06.2-.53.23.54.6,0-.47.38.17.57L96.05,75ZM96,47.49l.33-1.4-1.15-.77,1.47-.14L97.08,44l.51,1.24,1.35.06-1.06.85.4,1.28-1.17-.72Zm2.09,29L98.2,76l-.46-.32.59-.05.18-.49.21.5.55,0-.43.34.16.52-.48-.3Zm1.61,1.35.11-.47-.39-.26.5-.05.15-.41.17.42.46,0-.36.29.13.44-.39-.25Zm.17-3.06.11-.47-.39-.27.5,0,.15-.41.17.42.46,0-.36.29.13.43-.39-.25Zm2.16-.21.11-.48-.39-.26.5,0,.15-.42.18.42.45,0-.36.28.14.44-.4-.25Zm1.56-1.76.14-.62-.5-.34.65-.06.19-.54.23.55.6,0-.47.37.18.57-.52-.32Zm1.12,1.69.14-.61-.51-.35.65-.06.2-.53.23.55.6,0-.47.38.17.57-.52-.32ZM107.07,69l.18-.8-.66-.44.85-.08.25-.69.3.71.77,0-.6.48.22.73-.67-.41Z"/>
</svg>
