<svg id="Layer_1" data-name="Layer 1" xmlns="http://www.w3.org/2000/svg" viewBox="0 0 168.75 112.5">
    <defs>
        <style>.cls-1{fill:#d00100;}.cls-2{fill:#f3de3a;fill-rule:evenodd;}</style>
    </defs>
    <rect class="cls-1" y="-0.48" width="168.75" height="112.5"/>
    <polygon class="cls-2"
             points="32.19 15.63 36.45 29.97 50.32 29.94 39.09 38.77 43.4 53.09 32.19 44.21 20.99 53.09 25.3 38.77 14.07 29.94 27.93 29.97 32.19 15.63"/>
    <polygon class="cls-2"
             points="74.2 45.14 75.33 48.91 78.98 48.9 76.02 51.23 77.15 55 74.2 52.66 71.25 55 72.39 51.23 69.43 48.9 73.08 48.91 74.2 45.14"/>
    <polygon class="cls-2"
             points="72.15 25.51 74.86 28.17 78.02 26.18 76.52 29.8 79.24 32.45 75.61 32.03 74.13 35.65 73.38 31.77 69.75 31.37 72.91 29.39 72.15 25.51"/>
    <polygon class="cls-2"
             points="64 10.18 64.1 14.15 67.6 15.26 64.16 16.58 64.27 20.55 62.05 17.4 58.61 18.74 60.68 15.47 58.45 12.33 61.95 13.46 64 10.18"/>
    <polygon class="cls-2"
             points="65.23 57.9 64.89 61.84 68.24 63.41 64.68 64.27 64.35 68.22 62.49 64.81 58.93 65.68 61.35 62.71 59.48 59.3 62.83 60.88 65.23 57.9"/>
</svg>
