<svg id="Layer_1" data-name="Layer 1" xmlns="http://www.w3.org/2000/svg" viewBox="0 0 168.75 112.5">
    <defs>
        <style>.cls-1{fill:#ededed;}.cls-2{fill:#cc0b1b;}.cls-3{fill:#2c4db5;}</style>
    </defs>
    <rect class="cls-1" width="168.75" height="112.5"/>
    <path class="cls-2"
          d="M0,103.84H168.75v8.66H0ZM0,0H168.75V8.65H0ZM0,17.31H168.75V26H0Zm0,17.3H168.75v8.66H0ZM0,51.92H168.75v8.65H0ZM0,69.23H168.75v8.65H0ZM0,86.54H168.75v8.65H0Z"/>
    <rect class="cls-3" width="85.5" height="60.57"/>
    <path class="cls-1"
          d="M79,17.07l-.78-2.4-.78,2.4H74.89l2,1.48-.78,2.39,2-1.48,2,1.48-.77-2.39,2-1.48ZM8.57,6.4l2-1.48H8.09l-.78-2.4-.78,2.4H4l2,1.48L5.28,8.79l2-1.48,2,1.48Zm14.18,0,2-1.48H22.27l-.78-2.4-.78,2.4H18.19l2,1.48-.78,2.39,2-1.48,2,1.48Zm14.17,0,2-1.48H36.44l-.78-2.4-.78,2.4H32.37l2,1.48-.78,2.39,2-1.48,2,1.48Zm14.18,0,2-1.48H50.62l-.78-2.4-.78,2.4H46.54l2,1.48L47.8,8.79l2-1.48,2,1.48ZM16,48.63l2-1.48H15.56l-.78-2.39L14,47.15H11.48l2,1.48L12.74,51l2-1.48,2,1.48Zm-.28-11.8,2-1.48H15.28L14.5,33l-.78,2.4H11.2l2,1.48-.78,2.4,2-1.49,2,1.49Zm.07-11.74,2-1.48H15.35l-.78-2.39-.78,2.39H11.28l2,1.48-.77,2.39,2-1.48,2,1.48ZM65.27,6.4l2-1.48H64.79L64,2.52l-.78,2.4H60.72l2,1.48L62,8.79l2-1.48,2,1.48Zm14.18,0,2-1.48H79l-.78-2.4-.78,2.4H74.89l2,1.48-.78,2.39,2-1.48,2,1.48ZM30,25.09l2-1.48H29.52l-.77-2.39L28,23.61H25.45l2,1.48-.78,2.39,2-1.48,2,1.48Zm-.08,11.74,2-1.48H29.45L28.67,33l-.78,2.4H25.38l2,1.48-.78,2.4,2-1.49,2,1.49Zm.28,11.8,2-1.48H29.73L29,44.76l-.78,2.39H25.66l2,1.48L26.92,51l2-1.48L31,51Zm14.18,0,2-1.48H43.91l-.78-2.39-.78,2.39H39.83l2,1.48L41.09,51l2-1.48,2,1.48Zm-.28-11.8,2-1.48H43.63L42.85,33l-.78,2.4H39.55l2,1.48-.78,2.4,2-1.49,2,1.49Zm.07-11.74,2-1.48H43.7l-.78-2.39-.78,2.39H39.63l2,1.48-.78,2.39,2-1.48,2,1.48ZM15.66,12.47l2-1.48H15.18L14.4,8.6,13.62,11H11.11l2,1.48-.78,2.39,2-1.47,2,1.47Zm14.17,0,2-1.48H29.35L28.58,8.6,27.8,11H25.28l2,1.48-.78,2.39,2-1.48,2,1.48ZM58.36,25.09l2-1.48H57.87l-.77-2.39-.78,2.39H53.8l2,1.48-.78,2.39,2-1.48,2,1.48Zm-.08,11.74,2-1.48H57.8L57,33l-.78,2.4H53.73l2,1.48L55,39.23l2-1.48,2,1.48Zm.28,11.8,2-1.48H58.08l-.77-2.39-.78,2.39H54l2,1.48L55.27,51l2-1.48,2,1.48Zm14.18,0,2-1.48H72.26l-.78-2.39-.78,2.39H68.18l2,1.48L69.44,51l2-1.48,2,1.48Zm-.28-11.8,2-1.48H72L71.2,33l-.78,2.4H67.9l2,1.48-.78,2.4,2-1.49,2,1.49Zm.07-11.74,2-1.48H72.05l-.78-2.39-.78,2.39H68l2,1.48-.78,2.39,2-1.48,2,1.48ZM44,12.47l2-1.48H43.53L42.75,8.6,42,11H39.46l2,1.48-.77,2.39,2-1.47,2,1.47Zm14.17,0,2-1.48H57.7L56.93,8.6,56.15,11H53.63l2,1.48-.78,2.39,2-1.47,2,1.47Zm14.18,0,2-1.48H71.88L71.1,8.6,70.32,11H67.8l2,1.48-.78,2.39,2-1.48,2,1.48ZM9,54.7l2-1.47H8.47l-.78-2.4-.77,2.4H4.4l2,1.48L5.66,57.1l2-1.48,2,1.48ZM8.67,42.9l2-1.47H8.19L7.41,39l-.78,2.4H4.12l2,1.48L5.38,45.3l2-1.48,2,1.48Zm.07-11.73,2-1.48H8.26l-.77-2.4-.78,2.4H4.19l2,1.48-.78,2.39,2-1.48,2,1.48Zm14.18,0,2-1.47H22.44l-.78-2.4-.78,2.4H18.36l2,1.47-.78,2.4,2-1.48,2,1.48ZM22.84,42.9l2-1.47H22.36L21.58,39l-.77,2.4H18.29l2,1.47-.78,2.4,2-1.48,2,1.48Zm.29,11.8,2-1.47H22.65l-.78-2.4-.78,2.4H18.57l2,1.47-.78,2.4,2-1.48,2,1.48Zm14.17,0,2-1.47H36.82L36,50.83l-.78,2.4H32.75l2,1.47L34,57.1l2-1.48,2,1.48ZM37,42.9l2-1.47H36.54L35.76,39,35,41.43H32.47l2,1.48-.78,2.39,2-1.48,2,1.48Zm.07-11.73,2-1.48H36.61l-.78-2.4-.77,2.4H32.54l2,1.48-.77,2.39,2-1.48,2,1.48ZM8.57,18.55l2-1.48H8.09l-.78-2.4-.78,2.4H4l2,1.48-.78,2.39,2-1.48,2,1.48Zm14.18,0,2-1.48H22.27l-.78-2.4-.78,2.4H18.19l2,1.48-.78,2.39,2-1.48,2,1.48ZM51.27,31.17l2-1.48H50.79L50,27.29l-.78,2.4H46.71l2,1.47L48,33.56l2-1.48,2,1.48ZM51.19,42.9l2-1.47H50.71L49.93,39l-.77,2.4H46.64l2,1.47-.78,2.4,2-1.48,2,1.48Zm.29,11.8,2-1.47H51l-.77-2.4-.78,2.4H46.92l2,1.47-.78,2.4,2-1.48,2,1.48Zm14.17,0,2-1.47H65.17l-.78-2.4-.78,2.4H61.1l2,1.47-.77,2.4,2-1.48,2,1.48Zm14.18,0,2-1.47H79.34l-.77-2.4-.78,2.4H75.27l2,1.47-.78,2.4,2-1.48,2,1.48ZM65.37,42.91l2-1.48H64.89L64.11,39l-.78,2.4H60.82l2,1.47-.77,2.4,2-1.48,2,1.48Zm14.17,0,2-1.47H79.06L78.29,39l-.78,2.4H75l2,1.48-.78,2.39,2-1.48,2,1.48ZM65.44,31.17l2-1.48H65l-.78-2.4-.78,2.4H60.89l2,1.48-.78,2.39,2-1.48,2,1.48Zm14.18,0,2-1.47H79.14l-.78-2.4-.78,2.4H75.06l2,1.48-.78,2.39,2-1.48,2,1.48ZM36.92,18.55l2-1.48H36.44l-.78-2.4-.78,2.4H32.37l2,1.48-.78,2.39,2-1.48,2,1.48Zm14.18,0,2-1.48H50.62l-.78-2.4-.78,2.4H46.54l2,1.48-.78,2.39,2-1.48,2,1.48Zm14.17,0,2-1.48H64.79L64,14.67l-.78,2.4H60.72l2,1.48L62,20.94l2-1.48,2,1.48Z"/>
</svg>
